PathFileType	4	(X/Y/Z)	C:/Users/beibeiliu/ov580/test_trc/User2\sequence.32_training_dense_right.trc
DataRate	CameraRate	NumFrames	NumMarkers	Units	OrigDataRate	OrigDataStartFrame	OrigNumFrames
120	120	20	19	mm	120	1	111
Frame#	Time	ThumbCMC			ThumbMCP			ThumbIP			ThumbTip			IndexMCP			IndexPIP			IndexTip			MiddleMCP			MiddlePIP			MiddleTip			RingMCP			RingPIP			RingTip			PinkyMCP			PinkyPIP			PinkyTip			BackHand1			BackHand2			BackHand3	
		X0	Y0	Z0	X1	Y1	Z1	X2	Y2	Z2	X3	Y3	Z3	X4	Y4	Z4	X5	Y5	Z5	X6	Y6	Z6	X7	Y7	Z7	X8	Y8	Z8	X9	Y9	Z9	X10	Y10	Z10	X11	Y11	Z11	X12	Y12	Z12	X13	Y13	Z13	X14	Y14	Z14	X15	Y15	Z15	X16	Y16	Z16	X17	Y17	Z17	X18	Y18	Z18	
0	0	124.581	57.4537	-21.3652	111.897	75.3759	-50.3896	115.725	88.3895	-83.9268	117.341	94.4689	-106.946	165.016	88.5044	-91.7947	168.055	82.5161	-121.911	169.655	80.0606	-146.167	178.123	64.0983	-96.4332	165.807	43.797	-120.248	155.972	14.2777	-137.185	184.927	41.3228	-91.4779	169.388	18.6156	-104.405	149.517	-6.79553	-108.452	192.473	27.3704	-79.8347	170.339	5.7894	-83.6853	149.141	-8.84147	-75.7945	194.655	60.9643	-31.8373	184.444	51.5153	3.37538	158.404	72.507	-14.8642	
1	0.00833333	112.572	63.2569	-19.7965	100.758	76.4898	-41.4296	101.96	94.2579	-75.9782	97.2367	101.764	-98.1797	147.96	95.8147	-86.6599	148.565	96.7518	-118.391	151.363	88.0249	-147.161	157.51	71.7046	-93.6133	145.271	49.0464	-121.698	136.281	22.6975	-139.844	165.018	46.7687	-92.7103	158.225	24.296	-103.814	134.887	1.26749	-113.738	175.925	31.9108	-78.8693	154.112	8.53452	-83.062	130.909	-4.92128	-74.6368	180.988	62.8049	-31.7686	173.644	51.4962	2.85415	147.127	76.4247	-14.0645	
2	0.0166667	97.341	44.4832	-17.5167	88.7989	58.8197	-45.7098	85.2431	74.6575	-78.7622	83.7763	80.4898	-100.877	131.657	77.7282	-91.2946	129.309	78.2187	-119.089	133.169	68.9433	-148.098	141.252	51.6092	-101.618	130.725	30.8792	-124.452	122.185	1.81875	-142.327	154.13	28.5858	-94.8752	141.806	8.91894	-105.843	123.857	-17.4063	-114.025	161.816	14.8615	-82.7925	143.602	-7.55421	-82.5233	122.293	-21.469	-75.5361	168.885	48.8917	-36.6185	165.73	39.5534	-2.45846	135.733	60.6581	-16.0968	
3	0.025	84.9648	21.1335	-25.0421	72.7751	28.1436	-51.2483	72.1255	38.7997	-88.3951	65.605	41.825	-111.348	113.454	43.4616	-99.7552	112.723	36.0627	-131.725	117.63	24.8243	-156.204	131.331	16.3706	-105.548	120.381	-10.6626	-126.371	112.262	-39.7083	-137.224	139.417	-4.46785	-99.1464	128.121	-30.4163	-106.212	109.745	-54.1927	-105.986	150.692	-14.8877	-83.3063	132.611	-36.1679	-80.2797	108.103	-53.1126	-67.1998	153.826	27.741	-42.8875	151.315	18.8662	-5.9621	119.133	39.6218	-27.5468	
4	0.0333333	74.9371	12.1314	-28.7317	63.6489	12.9891	-54.8198	59.1524	16.9579	-91.4367	53.9577	15.6167	-116.041	102.409	15.5822	-109.407	97.4239	5.94189	-132.915	100.561	-11.376	-156.639	113.856	-6.8518	-104.996	101.565	-40.5766	-119.856	91.882	-68.2924	-125.927	126.267	-26.6878	-94.0055	108.842	-55.6345	-97.1273	91.486	-80.573	-91.0827	139.481	-37.7905	-79.3192	114.185	-60.3681	-72.4207	93.9741	-70.3101	-54.8009	143.551	9.46375	-45.7389	145.582	9.29107	-10.4103	114.557	24.3456	-30.3406	
5	0.0416667	72.6605	17.2965	-29.2528	60.8363	16.3655	-53.6659	52.3511	15.4101	-85.856	46.3928	12.2453	-111.006	90.1673	6.87624	-108.578	86.813	-10.7329	-131.897	75.9561	-26.5088	-155.434	102.426	-20.2372	-101.542	85.4347	-49.6625	-109.614	67.1539	-75.7172	-110.103	107.213	-40.1482	-89.4512	92.6356	-63.8664	-85.8584	69.3038	-79.7972	-74.5697	120.073	-52.1985	-73.0789	97.4112	-63.3573	-62.9501	74.0607	-72.3513	-40.8447	140.733	-2.85631	-50.2624	139.555	5.11305	-16.2115	112.961	22.3598	-37.5977	
6	0.05	79.6141	29.9157	-26.0475	63.1434	35.5344	-50.7636	52.4228	33.1069	-86.459	42.4183	27.9691	-107.317	83.9425	6.53834	-105.142	67.856	-6.93325	-126.457	57.0051	-28.0505	-142.69	85.4827	-19.5287	-96.3061	60.0777	-42.4945	-97.5453	34.8002	-64.5044	-90.9176	89.5847	-43.5073	-80.3474	67.0872	-57.9101	-72.1375	42.2187	-66.3839	-57.3547	99.4425	-50.1595	-63.7159	73.2687	-57.5122	-45.4289	51.7993	-52.9825	-24.5515	133.896	-6.87365	-47.6543	138.232	3.01834	-14.8394	115.753	24.6092	-38.2211	
7	0.0583333	93.9322	48.226	-22.3565	78.5501	54.7233	-50.6556	63.6144	51.7684	-83.1526	50.6068	48.9987	-105.107	76.8682	15.4435	-101.555	53.4956	2.45477	-116.988	31.0216	-8.7854	-131.271	68.2877	-11.3934	-87.1357	35.5772	-19.3087	-83.7469	2.74569	-30.2323	-70.8675	64.8619	-30.9249	-67.7362	39.0911	-33.7505	-56.6259	14.9812	-26.1245	-42.8217	74.3006	-39.3451	-51.8208	52.2533	-30.7031	-34.0462	34.6375	-18.5177	-11.4438	123.908	-13.3464	-49.4669	138.279	-2.48613	-13.1974	123.627	27.0845	-37.5414	
8	0.0666667	111.149	51.8887	-30.7786	99.2876	65.7196	-55.3145	81.0413	65.2268	-83.6456	65.2309	68.3612	-104.142	69.8031	23.3378	-97.2219	45.0297	23.7428	-110.095	20.3497	20.6271	-117.845	54.4765	7.5684	-78.9976	19.5684	17.939	-71.2793	-4.72143	26.2709	-59.9616	48.1323	-3.45231	-59.4967	25.0123	8.17562	-46.7905	1.93507	26.333	-30.2123	48.8328	-12.91	-37.859	38.7165	9.82991	-20.8234	33.554	25.7707	-0.653395	106.089	-18.8954	-42.2384	126.573	-11.8041	-13.726	125.64	18.416	-38.3871	
9	0.075	130.175	50.2216	-36.6874	117.371	62.0559	-65.022	99.7104	66.7033	-92.9337	83.9604	71.9199	-113.966	67.0603	29.0782	-95.611	47.7214	40.6159	-107.654	17.4749	48.4536	-115.877	48.6854	30.8798	-77.0591	23.6478	53.2743	-68.6535	5.92893	74.2067	-59.2921	40.2735	22.8111	-52.8837	26.8861	45.9084	-43.919	15.5801	73.0683	-32.6325	39.0451	17.7869	-28.4137	41.7222	44.8884	-16.5696	50.1739	67.7544	-4.23529	91.5421	-8.35166	-35.9028	112.568	-11.7233	-11.3399	123.117	8.54653	-39.8504	
10	0.0833333	136.952	37.7995	-43.9967	130.713	49.0596	-75.5972	114.695	57.216	-104.607	99.4019	63.166	-123.584	74.9265	29.1357	-97.4146	51.4443	45.3063	-113.604	28.0057	55.3693	-119.06	53.3421	39.2839	-76.6856	36.6867	65.8942	-74.0403	25.7539	96.5952	-67.3847	43.1494	42.5958	-52.6676	37.7046	66.8218	-48.6173	35.2991	96.526	-43.6231	44.5696	39.2916	-27.762	55.835	65.9479	-22.0635	74.2865	88.747	-12.0235	86.9149	-3.63091	-31.1403	110.654	-10.228	-6.50201	121.051	4.92077	-39.4952	
11	0.0916667	149.303	29.896	-45.4055	138.794	35.8601	-74.365	124.503	39.9692	-110.934	115.06	46.2776	-133.428	84.2208	18.9756	-103.931	62.4128	31.0739	-119.498	40.6067	46.0339	-132.297	66.5933	30.0001	-84.4859	49.0479	61.9347	-87.1528	41.5643	93.4138	-86.7517	52.8677	38.808	-61.1814	47.9837	64.2678	-59.3929	48.4448	96.7854	-60.7984	56.6199	42.2143	-39.5216	67.811	69.5959	-31.451	86.8315	87.122	-22.3865	86.9548	-7.31827	-33.4163	113.199	-11.4998	-6.61569	126.882	-2.04758	-45.0644	
12	0.1	160.612	22.5649	-50.1416	150.691	25.9659	-78.8677	140.328	28.051	-110.979	131.854	30.6017	-134.672	100.019	0.0781813	-112.316	79.1848	8.75857	-127.812	62.0557	19.8356	-143.358	77.1772	13.5475	-95.8309	57.0672	41.696	-98.681	46.2472	69.9771	-100.294	64.2943	20.5876	-72.8957	53.4345	46.9575	-72.7914	51.9705	75.3252	-79.4152	63.279	25.2143	-48.4217	73.4388	52.4579	-45.0434	90.8659	73.6504	-37.3887	103.375	-21.5186	-38.3359	124.476	-19.2371	-9.94535	143.197	-13.1452	-44.0628	
13	0.108333	164.674	21.9788	-49.7478	161.551	26.2809	-81.1533	152.179	22.3389	-112.922	146.773	26.2121	-135.949	124.314	-13.5219	-113.656	103.991	-11.0947	-135.303	81.4049	-4.7321	-156.33	97.6146	-12.4184	-100.745	73.5329	9.52691	-111.617	49.9346	37.7302	-115.909	78.0605	-6.13587	-83.2464	67.622	15.3383	-89.8925	52.7939	38.702	-92.5439	75.4081	-4.50511	-58.1141	75.8342	28.7133	-54.3933	84.11	50.51	-49.8306	127.177	-32.657	-42.235	141.841	-27.6557	-14.8824	162.727	-14.1572	-45.881	
14	0.116667	164.964	35.9448	-46.8224	165.264	45.2163	-76.9682	161.573	39.5983	-110.806	157.627	37.693	-138.969	153.614	-6.12789	-122.664	135.223	-10.9653	-144.099	118.555	-11.5156	-164.822	128.852	-16.407	-112.01	98.8871	-11.9491	-122.403	66.6718	2.72283	-130.639	107.885	-27.919	-94.7245	83.5913	-13.5392	-103.343	60.9383	4.36992	-109.354	102.086	-28.0332	-71.1438	84.0297	-5.69719	-65.2534	76.6983	23.429	-57.8612	154.816	-35.0859	-48.813	165.593	-22.7436	-17.6154	176.432	0.0751251	-48.0309	
15	0.125	156.893	47.8935	-41.5558	154.431	56.746	-70.0064	156.028	58.5761	-104.599	154.084	56.5599	-129.537	171.434	16.3345	-120.696	158.315	9.05483	-146.129	146.14	2.15531	-168.525	151.009	-6.60824	-115.258	121.786	-8.85995	-130.339	93.5784	-12.2294	-139.882	139.312	-23.3939	-103.623	115.421	-28.0448	-108.675	85.5225	-21.8841	-117.68	132.189	-35.1449	-80.1793	107.053	-23.0822	-74.5335	86.4918	-4.97935	-68.0141	181.91	-21.4705	-49.6876	182.482	-13.5956	-18.6042	182.476	20.3864	-40.1933	
16	0.133333	143.385	45.0706	-35.6558	139.839	60.4245	-65.6542	146.526	63.6274	-100.424	145.76	67.4574	-125.55	177.265	39.1586	-115.75	170.659	33.4275	-141.219	166.227	19.964	-167.913	171.47	12.3879	-112.998	147.274	-1.21414	-131.761	124.036	-19.8465	-145.399	168.53	-11.1933	-103.697	142.091	-22.9377	-116.225	115.44	-29.0463	-127.863	164.754	-29.7405	-85.939	131.654	-26.9321	-83.6162	105.844	-22.0182	-78.3976	196.925	1.36264	-46.8215	190.535	1.89292	-12.2395	178.601	34.2372	-32.5634	
17	0.141667	132.358	44.0284	-33.8463	130.064	56.2946	-63.0578	129.65	70.8167	-92.681	131.595	77.458	-115.528	176.08	60.1372	-106.669	175.331	56.9391	-133.419	175.139	50.3289	-159.737	178.926	30.7878	-110.751	163.012	13.6182	-135.148	145.331	-3.4194	-154.088	181.435	9.8088	-106.243	164.213	-10.1304	-122.314	142.985	-18.4318	-135.648	181.22	-9.96249	-91.3114	153.292	-21.7236	-92.5053	130.07	-30.4543	-90.9768	200.914	20.5916	-41.9644	189.628	13.0854	-7.21009	167.668	45.066	-26.2453	
18	0.15	119.24	43.9398	-25.8429	117.835	62.0486	-55.1098	116.27	79.129	-83.4118	117.693	91.0242	-106.13	162.331	81.2224	-93.0385	166.03	81.2593	-119.812	171.528	77.9554	-151.697	172.687	55.2538	-104.664	166.589	38.6025	-128.302	154.581	15.9934	-154.356	186.512	29.7909	-99.299	172.391	16.3019	-119.485	152.784	0.900312	-139.65	188.115	10.8581	-88.1743	160.271	-6.7058	-96.2152	141.436	-19.82	-95.4495	191.663	39.3598	-36.7428	180.797	23.3121	-6.0736	159.85	50.9919	-19.1691	
19	0.158333	107.182	48.9526	-20.3596	103.527	66.9248	-45.5811	100.568	84.4825	-71.7053	99.6012	99.144	-95.1626	143.16	92.6009	-80.8961	145.527	98.4997	-110.79	146.158	98.8592	-139.335	160.084	68.2355	-97.2217	150.512	55.2972	-125.015	139.558	36.259	-151.864	170.015	46.6791	-98.3641	157.54	35.2455	-118.34	141.45	17.5759	-140.213	175.888	27.962	-84.0473	155.278	7.10621	-95.7108	129.748	-8.56619	-98.0506	177.772	52.0911	-32.5789	172.478	33.3834	-2.9649	145.425	56.3246	-11.0358	
